<?xml version="1.0" encoding="UTF-8"?>
<svg version="1.1" xmlns="http://www.w3.org/2000/svg" width="556" height="284">
<path d="M0 0 C14.32494484 -0.02312005 28.64988527 -0.04091336 42.97484493 -0.05181217 C49.6257353 -0.05704174 56.27660786 -0.06414072 62.92749023 -0.07543945 C69.34002877 -0.08626571 75.75255504 -0.09227628 82.16510201 -0.09487724 C84.61764278 -0.09673197 87.07018285 -0.10035347 89.52271843 -0.10573006 C92.94476677 -0.11293702 96.36676371 -0.11399109 99.78881836 -0.11352539 C100.81380432 -0.11712067 101.83879028 -0.12071594 102.89483643 -0.12442017 C103.82176804 -0.1230455 104.74869965 -0.12167084 105.70372009 -0.12025452 C106.51397613 -0.12117631 107.32423216 -0.1220981 108.1590414 -0.12304783 C110 0 110 0 111 1 C111.14115161 3.67058851 111.04247107 6.32432238 111 9 C110.01 9 109.02 9 108 9 C108 9.99 108 10.98 108 12 C106.35 12.33 104.7 12.66 103 13 C103.495 14.485 103.495 14.485 104 16 C93.44 16 82.88 16 72 16 C72.495 18.475 72.495 18.475 73 21 C72.34249689 22.33787589 71.6743074 23.67051448 71 25 C70.70585235 27.6084792 70.49362383 30.13533311 70.375 32.75 C70.33632812 33.44738281 70.29765625 34.14476562 70.2578125 34.86328125 C70.16401376 36.57510818 70.08093826 38.28751682 70 40 C69.34 40 68.68 40 68 40 C67.67 46.27 67.34 52.54 67 59 C66.34 59 65.68 59 65 59 C64.67 65.27 64.34 71.54 64 78 C63.01 78 62.02 78 61 78 C61 78.99 61 79.98 61 81 C82.45 81 103.9 81 126 81 C126 81.99 126 82.98 126 84 C126.99 84 127.98 84 129 84 C129.07347656 82.87851563 129.07347656 82.87851563 129.1484375 81.734375 C129.26058594 80.25710937 129.26058594 80.25710937 129.375 78.75 C129.44460937 77.77546875 129.51421875 76.8009375 129.5859375 75.796875 C130 73 130 73 131 71.09570312 C132.09409982 68.80279471 132.3058618 67.19655789 132.4140625 64.671875 C132.47207031 63.47304687 132.47207031 63.47304687 132.53125 62.25 C132.5621875 61.425 132.593125 60.6 132.625 59.75 C132.68300781 58.48929688 132.68300781 58.48929688 132.7421875 57.203125 C132.83615836 55.13576618 132.91915564 53.06791373 133 51 C133.66 50.67 134.32 50.34 135 50 C135.33 43.73 135.66 37.46 136 31 C136.66 31 137.32 31 138 31 C138.33 24.73 138.66 18.46 139 12 C139.66 12 140.32 12 141 12 C141.66 10.02 142.32 8.04 143 6 C143.99 6 144.98 6 146 6 C146 5.01 146 4.02 146 3 C147.2065625 2.814375 147.2065625 2.814375 148.4375 2.625 C149.283125 2.41875 150.12875 2.2125 151 2 C151.33 1.34 151.66 0.68 152 0 C165.13421951 -0.0231312 178.26843421 -0.04091907 191.40266991 -0.05181217 C197.50087578 -0.05703929 203.59906775 -0.06413386 209.69726562 -0.07543945 C215.57813275 -0.08627438 221.45898649 -0.09227813 227.33986282 -0.09487724 C229.58782792 -0.09673039 231.83579226 -0.10034892 234.08375168 -0.10573006 C237.22300575 -0.11294849 240.36220386 -0.1139906 243.50146484 -0.11352539 C244.43869888 -0.11712067 245.37593292 -0.12071594 246.34156799 -0.12442017 C247.62043633 -0.12235817 247.62043633 -0.12235817 248.92514038 -0.12025452 C249.66810553 -0.12117631 250.41107067 -0.1220981 251.17654991 -0.12304783 C253 0 253 0 255 1 C255 2.32 255 3.64 255 5 C254.34 5.33 253.68 5.66 253 6 C252.34227572 9.02934491 252.34227572 9.02934491 252 12 C251.01 12.33 250.02 12.66 249 13 C248.67 13.99 248.34 14.98 248 16 C246.35 16 244.7 16 243 16 C243.33 16.99 243.66 17.98 244 19 C221.23 19 198.46 19 175 19 C174.34 25.93 173.68 32.86 173 40 C172.34 41.32 171.68 42.64 171 44 C170.70585235 46.6084792 170.49362383 49.13533311 170.375 51.75 C170.31699219 52.79607422 170.31699219 52.79607422 170.2578125 53.86328125 C170.16401376 55.57510818 170.08093826 57.28751682 170 59 C169.34 59 168.68 59 168 59 C167.67 66.26 167.34 73.52 167 81 C178.55 81 190.1 81 202 81 C202 76.05 202 71.1 202 66 C202.66 66 203.32 66 204 66 C204.07347656 64.12054688 204.07347656 64.12054688 204.1484375 62.203125 C204.22348583 60.55206179 204.29903277 58.90102119 204.375 57.25 C204.4059375 56.425 204.436875 55.6 204.46875 54.75 C204.52675781 53.55117187 204.52675781 53.55117187 204.5859375 52.328125 C204.6173584 51.5949707 204.6487793 50.86181641 204.68115234 50.10644531 C205.04047995 47.73257196 205.86321799 46.10221675 207 44 C207.33 43.01 207.66 42.02 208 41 C201.73 41 195.46 41 189 41 C188.609375 31.91796875 188.609375 31.91796875 189 29 C191.015625 27.17578125 191.015625 27.17578125 193 26 C193 25.67 193 25.34 193 25 C233.92 25 274.84 25 317 25 C317 19.39 317 13.78 317 8 C317.66 7.67 318.32 7.34 319 7 C319.66 4.69 320.32 2.38 321 0 C333.21 0 345.42 0 358 0 C358 8.25 358 16.5 358 25 C357.34 25 356.68 25 356 25 C355.67 25.99 355.34 26.98 355 28 C365.89 28 376.78 28 388 28 C388 27.01 388 26.02 388 25 C387.34 25 386.68 25 386 25 C386.50603992 22.83125748 386.99983813 21.00032373 388 19 C388.23274209 16.12089412 388.41972757 13.25853505 388.5625 10.375 C388.60568359 9.57320312 388.64886719 8.77140625 388.69335938 7.9453125 C388.79951457 5.9637489 388.90026855 3.98189729 389 2 C389.99 2.33 390.98 2.66 392 3 C392 2.01 392 1.02 392 0 C403.55 0 415.1 0 427 0 C427 0.66 427 1.32 427 2 C427.99 2.33 428.98 2.66 430 3 C430 7.95 430 12.9 430 18 C429.34 18.33 428.68 18.66 428 19 C427.31270746 21.11846285 427.31270746 21.11846285 426.875 23.5625 C426.70742188 24.38878906 426.53984375 25.21507813 426.3671875 26.06640625 C426.24601562 26.70449219 426.12484375 27.34257813 426 28 C426.98919434 27.99476318 427.97838867 27.98952637 428.99755859 27.98413086 C432.66144916 27.96605477 436.32533577 27.95455842 439.98925781 27.94506836 C441.57617861 27.94003412 443.16309477 27.93320631 444.75 27.92456055 C447.02865749 27.91245518 449.30725376 27.90676267 451.5859375 27.90234375 C452.65320572 27.89460182 452.65320572 27.89460182 453.74203491 27.88670349 C458.77225659 27.88612829 458.77225659 27.88612829 461 29 C461 30.65 461 32.3 461 34 C460.01 34 459.02 34 458 34 C457.87625 34.598125 457.7525 35.19625 457.625 35.8125 C457 38 457 38 455 41 C452.375 41.1875 452.375 41.1875 450 41 C450.33 41.99 450.66 42.98 451 44 C441.76 44 432.52 44 423 44 C423.33 44.66 423.66 45.32 424 46 C424.07065617 48.04055005 424.08421976 50.08334257 424.0625 52.125 C424.05347656 53.22070312 424.04445313 54.31640625 424.03515625 55.4453125 C424.01775391 56.70988281 424.01775391 56.70988281 424 58 C422.515 58.495 422.515 58.495 421 59 C420.67 66.92 420.34 74.84 420 83 C419.34 83 418.68 83 418 83 C418.0309375 84.5778125 418.0309375 84.5778125 418.0625 86.1875 C418.01103198 89.32704904 417.73482813 91.96883396 417 95 C416.34 95 415.68 95 415 95 C415 95.66 415 96.32 415 97 C404.11 97 393.22 97 382 97 C382 96.34 382 95.68 382 95 C381.34 94.67 380.68 94.34 380 94 C380 85.75 380 77.5 380 69 C380.66 69 381.32 69 382 69 C382.01458252 68.34926514 382.02916504 67.69853027 382.04418945 67.02807617 C382.11864549 64.08061694 382.21531266 61.13429358 382.3125 58.1875 C382.33505859 57.16333984 382.35761719 56.13917969 382.38085938 55.08398438 C382.41630859 54.10107422 382.45175781 53.11816406 382.48828125 52.10546875 C382.51446533 51.19949951 382.54064941 50.29353027 382.56762695 49.36010742 C383 47 383 47 386 44 C375.11 44 364.22 44 353 44 C353 44.66 353 45.32 353 46 C353.66 46 354.32 46 355 46 C355 47.65 355 49.3 355 51 C354.34 50.67 353.68 50.34 353 50 C352.67 57.59 352.34 65.18 352 73 C351.34 72.67 350.68 72.34 350 72 C349.34 78.93 348.68 85.86 348 93 C346.515 93.495 346.515 93.495 345 94 C345 94.99 345 95.98 345 97 C339.89136104 97.0246501 334.78275641 97.04283607 329.67407227 97.05493164 C327.93480832 97.05997204 326.19554864 97.0668043 324.45629883 97.07543945 C321.96174063 97.08751792 319.46723827 97.09323108 316.97265625 97.09765625 C316.19036148 97.10281754 315.40806671 97.10797882 314.60206604 97.11329651 C312.73432886 97.11349226 310.86670796 97.06199694 309 97 C306.70714814 94.70714814 307.81462943 89.20416207 307.8125 86.125 C307.80025391 85.20074219 307.78800781 84.27648437 307.77539062 83.32421875 C307.77345703 82.43605469 307.77152344 81.54789062 307.76953125 80.6328125 C307.76542236 79.81699707 307.76131348 79.00118164 307.75708008 78.16064453 C308 76 308 76 310 73 C310.36433373 70.87662229 310.36433373 70.87662229 310.4140625 68.55078125 C310.45273437 67.70322266 310.49140625 66.85566406 310.53125 65.98242188 C310.5621875 65.10134766 310.593125 64.22027344 310.625 63.3125 C310.66367187 62.41982422 310.70234375 61.52714844 310.7421875 60.60742188 C310.83640218 58.4051538 310.92201588 56.20289278 311 54 C311.66 54 312.32 54 313 54 C313.33 49.71 313.66 45.42 314 41 C291.56 41 269.12 41 246 41 C245.67 46.61 245.34 52.22 245 58 C244.34 59.32 243.68 60.64 243 62 C242.71306612 64.24133258 242.51033409 66.4944319 242.375 68.75 C242.30023438 69.92046875 242.22546875 71.0909375 242.1484375 72.296875 C242.07496094 73.63492188 242.07496094 73.63492188 242 75 C241.34 75 240.68 75 240 75 C239.67 79.29 239.34 83.58 239 88 C238.34 88 237.68 88 237 88 C237 88.99 237 89.98 237 91 C236.34 91 235.68 91 235 91 C235 91.99 235 92.98 235 94 C234.01 94.66 233.02 95.32 232 96 C232 96.33 232 96.66 232 97 C199.99 97 167.98 97 135 97 C135 96.34 135 95.68 135 95 C134.01 94.67 133.02 94.34 132 94 C132 94.99 132 95.98 132 97 C117.69233864 97.04668014 103.38468906 97.08183637 89.07696724 97.10362434 C82.43393444 97.11407935 75.79095265 97.1282698 69.14794922 97.15087891 C62.7418861 97.17254614 56.33587216 97.18455568 49.92977524 97.18975449 C47.48084615 97.19346127 45.03191988 97.20069925 42.58301163 97.21146011 C39.16351671 97.22589367 35.74422731 97.22798136 32.32470703 97.22705078 C31.30331635 97.23424133 30.28192566 97.24143188 29.22958374 97.24884033 C27.83712433 97.24471634 27.83712433 97.24471634 26.41653442 97.24050903 C25.60720018 97.24235262 24.79786594 97.24419621 23.96400642 97.24609566 C22 97 22 97 20 95 C19.8046875 92.1796875 19.8046875 92.1796875 19.875 88.875 C19.89304687 87.77929688 19.91109375 86.68359375 19.9296875 85.5546875 C19.95289062 84.71164063 19.97609375 83.86859375 20 83 C20.66 83.33 21.32 83.66 22 84 C22.03738281 82.865625 22.07476563 81.73125 22.11328125 80.5625 C22.67320071 66.84903791 22.67320071 66.84903791 24.5 62.6875 C26.59051663 57.54831327 26.73413912 52.50056996 27 47 C27.66 47 28.32 47 29 47 C28.979375 45.72125 28.95875 44.4425 28.9375 43.125 C28.92941245 38.03792983 29.40979211 33.0483853 30 28 C30.66 28 31.32 28 32 28 C31.98839844 27.37351562 31.97679688 26.74703125 31.96484375 26.1015625 C31.95582031 25.28429687 31.94679688 24.46703125 31.9375 23.625 C31.92589844 22.81289062 31.91429688 22.00078125 31.90234375 21.1640625 C32 19 32 19 33 17 C22.11 16.67 11.22 16.34 0 16 C0 10.72 0 5.44 0 0 Z M312 26 C312 26.33 312 26.66 312 27 C313.65 27 315.3 27 317 27 C317 26.67 317 26.34 317 26 C315.35 26 313.7 26 312 26 Z " fill="#63A710" transform="translate(0,98)"/>
<path d="M0 0 C18.81 0 37.62 0 57 0 C57.495 0.99 57.495 0.99 58 2 C264.91 2.495 264.91 2.495 476 3 C476 3.99 476 4.98 476 6 C476.99 6.33 477.98 6.66 479 7 C479 14.92 479 22.84 479 31 C478.01 31 477.02 31 476 31 C476 32.98 476 34.96 476 37 C474.68 37.33 473.36 37.66 472 38 C472 38.99 472 39.98 472 41 C465.73 41 459.46 41 453 41 C453.66 40.34 454.32 39.68 455 39 C453.75911621 38.98018066 452.51823242 38.96036133 451.23974609 38.93994141 C446.62138099 38.86367919 442.00332248 38.7749937 437.38525391 38.68261719 C435.38922188 38.64441252 433.39312301 38.60954498 431.39697266 38.578125 C428.52221846 38.53228936 425.64792108 38.47432559 422.7734375 38.4140625 C421.88570648 38.40251129 420.99797546 38.39096008 420.08334351 38.37905884 C415.2676149 38.26520241 411.58124968 37.56751824 407 36 C403.96433959 35.60081223 400.92940063 35.49065238 397.87109375 35.3828125 C396.93204697 35.34527863 395.99300018 35.30774475 395.02549744 35.26907349 C381.30068633 34.78939979 367.56120056 34.84981151 353.82983398 34.86962891 C349.84115105 34.87535948 345.85253498 34.87200929 341.86385441 34.86605644 C338.73304254 34.86240796 335.60224602 34.86360831 332.47143364 34.86618423 C331.00176421 34.86683991 329.53209328 34.86607414 328.06242561 34.86370468 C320.61219321 34.85430876 313.17511993 34.95844914 305.73608398 35.38330078 C304.53668686 35.45171173 303.33728973 35.52012268 302.10154724 35.59060669 C299.19662276 35.97404649 297.51044953 36.58818631 295 38 C292.34277344 38.31884766 292.34277344 38.31884766 289.359375 38.4140625 C287.75449219 38.47207031 287.75449219 38.47207031 286.1171875 38.53125 C285.00601562 38.5621875 283.89484375 38.593125 282.75 38.625 C281.06003906 38.68300781 281.06003906 38.68300781 279.3359375 38.7421875 C276.55745452 38.83637336 273.77897666 38.92199586 271 39 C271.66 39.66 272.32 40.32 273 41 C260.46 41 247.92 41 235 41 C236.98 40.01 236.98 40.01 239 39 C238.15110703 38.99191315 237.30221405 38.98382629 236.42759705 38.97549438 C228.40935114 38.89740297 220.39126982 38.81006874 212.37323666 38.71247292 C208.25154391 38.66262629 204.12987536 38.61629567 200.00805664 38.578125 C196.02680834 38.54112465 192.04576832 38.49472562 188.06469917 38.44193649 C186.54937982 38.42347063 185.03401594 38.40833415 183.51862907 38.39665604 C181.38842527 38.37965893 179.25869041 38.35059376 177.12866211 38.31884766 C175.9184288 38.30552399 174.7081955 38.29220032 173.46128845 38.2784729 C169.75247662 37.98008587 166.55154081 37.08050333 163 36 C160.38744458 35.7698346 157.8522935 35.6118558 155.23828125 35.54296875 C153.77535246 35.48202931 152.31246244 35.42015294 150.84960938 35.35742188 C148.57197353 35.26848445 146.2948044 35.18699387 144.01635742 35.12182617 C141.79724989 35.05446508 139.58104352 34.9571874 137.36328125 34.85546875 C136.04626221 34.81059326 134.72924316 34.76571777 133.37231445 34.71948242 C129.19163876 33.82753634 128.33136495 32.47085046 126 29 C125.01 28.34 124.02 27.68 123 27 C123 26.67 123 26.34 123 26 C109.47 26 95.94 26 82 26 C81.67 26.66 81.34 27.32 81 28 C80.01 28 79.02 28 78 28 C78 28.99 78 29.98 78 31 C73.05 31.33 68.1 31.66 63 32 C63 32.66 63 33.32 63 34 C62.0821875 34.03738281 61.164375 34.07476562 60.21875 34.11328125 C58.37796875 34.21189453 58.37796875 34.21189453 56.5 34.3125 C55.2934375 34.37050781 54.086875 34.42851562 52.84375 34.48828125 C48.94429012 34.83971487 48.94429012 34.83971487 45.34887695 36.51147461 C40.70687839 38.2997406 36.50380411 38.40196744 31.57421875 38.328125 C30.70481155 38.32625183 29.83540436 38.32437866 28.93965149 38.32244873 C27.11687335 38.31576952 25.29410852 38.30193832 23.47143555 38.28125 C20.67808754 38.24989434 17.88530407 38.24025246 15.09179688 38.234375 C13.31509726 38.22521155 11.53840339 38.21483788 9.76171875 38.203125 C8.92734787 38.19887512 8.09297699 38.19462524 7.23332214 38.19024658 C3.91304922 38.14907414 1.17079819 38.05693273 -2 37 C-2 36.34 -2 35.68 -2 35 C-2.63808594 34.95101562 -3.27617187 34.90203125 -3.93359375 34.8515625 C-4.75988281 34.77679688 -5.58617188 34.70203125 -6.4375 34.625 C-7.26121094 34.55539063 -8.08492187 34.48578125 -8.93359375 34.4140625 C-9.95646484 34.20910156 -9.95646484 34.20910156 -11 34 C-11.33 33.34 -11.66 32.68 -12 32 C-12.825 31.835 -13.65 31.67 -14.5 31.5 C-15.325 31.335 -16.15 31.17 -17 31 C-17.33 30.34 -17.66 29.68 -18 29 C-18.66 28.835 -19.32 28.67 -20 28.5 C-20.66 28.335 -21.32 28.17 -22 28 C-22.33 27.34 -22.66 26.68 -23 26 C-24.3153341 25.29848848 -25.65117592 24.63474075 -27 24 C-27.99 23.34 -28.98 22.68 -30 22 C-30 21.01 -30 20.02 -30 19 C-31.65 19 -33.3 19 -35 19 C-35 14.71 -35 10.42 -35 6 C-29.555 5.505 -29.555 5.505 -24 5 C-24 4.34 -24 3.68 -24 3 C-16.08 2.67 -8.16 2.34 0 2 C0 1.34 0 0.68 0 0 Z M360 4 C360 4.33 360 4.66 360 5 C371.22 5 382.44 5 394 5 C394 4.67 394 4.34 394 4 C382.78 4 371.56 4 360 4 Z M98 23 C102 24 102 24 102 24 Z " fill="#63A710" transform="translate(35,198)"/>
<path d="M0 0 C2.69945818 -0.0002235 5.39891555 -0.00164474 8.09837341 -0.00289917 C13.72712707 -0.00470689 19.3558675 -0.00234916 24.98461914 0.00244141 C31.4791931 0.00790523 37.97373576 0.00610044 44.46830899 0.000615 C50.0729078 -0.00392772 55.67749722 -0.00456171 61.28209728 -0.00194633 C64.61766994 -0.000393 67.95321609 -0.0005612 71.28878975 -0.00348282 C74.99796807 -0.00602127 78.70708595 -0.00215292 82.41625977 0.00341797 C83.51191254 0.00139374 84.60756531 -0.00063049 85.73641968 -0.00271606 C90.62137722 0.01088058 95.25864863 0.09373386 100.05859375 1.1328125 C100.05859375 1.7928125 100.05859375 2.4528125 100.05859375 3.1328125 C103.02859375 3.4628125 105.99859375 3.7928125 109.05859375 4.1328125 C108.72859375 5.1228125 108.39859375 6.1128125 108.05859375 7.1328125 C110.03859375 7.1328125 112.01859375 7.1328125 114.05859375 7.1328125 C114.38859375 8.1228125 114.71859375 9.1128125 115.05859375 10.1328125 C116.04859375 10.4628125 117.03859375 10.7928125 118.05859375 11.1328125 C118.05859375 11.7928125 118.05859375 12.4528125 118.05859375 13.1328125 C120.03859375 13.6278125 120.03859375 13.6278125 122.05859375 14.1328125 C122.05859375 14.7928125 122.05859375 15.4528125 122.05859375 16.1328125 C123.04859375 16.4628125 124.03859375 16.7928125 125.05859375 17.1328125 C126.74609375 18.5078125 126.74609375 18.5078125 128.05859375 20.1328125 C128.05859375 21.1228125 128.05859375 22.1128125 128.05859375 23.1328125 C129.04859375 23.4628125 130.03859375 23.7928125 131.05859375 24.1328125 C132.2008182 26.4172614 132.19091027 27.70508731 132.20385742 30.24365234 C132.2134272 31.5153981 132.2134272 31.5153981 132.22319031 32.81283569 C132.22485954 34.18938828 132.22485954 34.18938828 132.2265625 35.59375 C132.2298909 36.53586334 132.2332193 37.47797668 132.23664856 38.44863892 C132.24171718 40.44426993 132.24405691 42.43990943 132.24389648 44.43554688 C132.24607988 47.48842365 132.26422778 50.54093736 132.28320312 53.59375 C132.28613767 55.53124876 132.28812206 57.46874924 132.2890625 59.40625 C132.29624802 60.31990326 132.30343353 61.23355652 132.31083679 62.17489624 C132.30776016 63.02903107 132.30468353 63.88316589 132.30151367 64.76318359 C132.30293869 65.51215912 132.30436371 66.26113464 132.30583191 67.0328064 C132.02435935 69.42359465 131.24400487 71.05416918 130.05859375 73.1328125 C129.39859375 73.1328125 128.73859375 73.1328125 128.05859375 73.1328125 C128.05859375 75.4428125 128.05859375 77.7528125 128.05859375 80.1328125 C127.39859375 80.1328125 126.73859375 80.1328125 126.05859375 80.1328125 C125.62546875 81.8034375 125.62546875 81.8034375 125.18359375 83.5078125 C124.05859375 87.1328125 124.05859375 87.1328125 122.05859375 89.1328125 C121.41607025 91.20155284 121.41607025 91.20155284 121.05859375 93.1328125 C120.39859375 93.1328125 119.73859375 93.1328125 119.05859375 93.1328125 C118.93484375 93.9371875 118.81109375 94.7415625 118.68359375 95.5703125 C118.37421875 96.83875 118.37421875 96.83875 118.05859375 98.1328125 C117.39859375 98.4628125 116.73859375 98.7928125 116.05859375 99.1328125 C115.40304256 101.66014485 115.40304256 101.66014485 115.05859375 104.1328125 C114.06859375 104.1328125 113.07859375 104.1328125 112.05859375 104.1328125 C112.05859375 105.4528125 112.05859375 106.7728125 112.05859375 108.1328125 C111.39859375 108.1328125 110.73859375 108.1328125 110.05859375 108.1328125 C109.39859375 110.1128125 108.73859375 112.0928125 108.05859375 114.1328125 C107.39859375 114.1328125 106.73859375 114.1328125 106.05859375 114.1328125 C106.05859375 115.1228125 106.05859375 116.1128125 106.05859375 117.1328125 C105.39859375 117.1328125 104.73859375 117.1328125 104.05859375 117.1328125 C104.05859375 118.1228125 104.05859375 119.1128125 104.05859375 120.1328125 C103.39859375 120.1328125 102.73859375 120.1328125 102.05859375 120.1328125 C102.05859375 121.1228125 102.05859375 122.1128125 102.05859375 123.1328125 C101.39859375 123.7928125 100.73859375 124.4528125 100.05859375 125.1328125 C99.72859375 125.7928125 99.39859375 126.4528125 99.05859375 127.1328125 C98.39859375 127.1328125 97.73859375 127.1328125 97.05859375 127.1328125 C96.72859375 128.7828125 96.39859375 130.4328125 96.05859375 132.1328125 C95.06859375 132.1328125 94.07859375 132.1328125 93.05859375 132.1328125 C93.05859375 133.4528125 93.05859375 134.7728125 93.05859375 136.1328125 C92.06859375 136.1328125 91.07859375 136.1328125 90.05859375 136.1328125 C89.72859375 138.1128125 89.39859375 140.0928125 89.05859375 142.1328125 C88.39859375 142.1328125 87.73859375 142.1328125 87.05859375 142.1328125 C87.05859375 143.1228125 87.05859375 144.1128125 87.05859375 145.1328125 C86.06859375 145.1328125 85.07859375 145.1328125 84.05859375 145.1328125 C83.72859375 147.1128125 83.39859375 149.0928125 83.05859375 151.1328125 C82.06859375 151.4628125 81.07859375 151.7928125 80.05859375 152.1328125 C79.72859375 152.7928125 79.39859375 153.4528125 79.05859375 154.1328125 C76.74859375 154.1328125 74.43859375 154.1328125 72.05859375 154.1328125 C71.62658696 149.38073779 73.07370292 146.35070552 75.05859375 142.1328125 C75.71859375 142.1328125 76.37859375 142.1328125 77.05859375 142.1328125 C77.18234375 141.1634375 77.30609375 140.1940625 77.43359375 139.1953125 C77.74296875 137.679375 77.74296875 137.679375 78.05859375 136.1328125 C78.71859375 135.8028125 79.37859375 135.4728125 80.05859375 135.1328125 C80.71631803 132.10346759 80.71631803 132.10346759 81.05859375 129.1328125 C81.71859375 129.1328125 82.37859375 129.1328125 83.05859375 129.1328125 C83.38859375 126.1628125 83.71859375 123.1928125 84.05859375 120.1328125 C84.71859375 120.1328125 85.37859375 120.1328125 86.05859375 120.1328125 C86.10757812 118.92882812 86.1565625 117.72484375 86.20703125 116.484375 C86.28205718 114.90883052 86.35760508 113.33331084 86.43359375 111.7578125 C86.48 110.56671875 86.48 110.56671875 86.52734375 109.3515625 C86.83203125 103.359375 86.83203125 103.359375 89.05859375 101.1328125 C89.39192708 97.6328125 89.39192708 97.6328125 89.05859375 94.1328125 C88.39859375 93.4728125 87.73859375 92.8128125 87.05859375 92.1328125 C86.67393193 89.01617753 86.55150388 85.92124801 86.40234375 82.78515625 C86.28890625 81.90988281 86.17546875 81.03460938 86.05859375 80.1328125 C85.39859375 79.8028125 84.73859375 79.4728125 84.05859375 79.1328125 C84.05859375 77.1528125 84.05859375 75.1728125 84.05859375 73.1328125 C83.06859375 73.1328125 82.07859375 73.1328125 81.05859375 73.1328125 C80.72859375 71.1528125 80.39859375 69.1728125 80.05859375 67.1328125 C79.06859375 66.8028125 78.07859375 66.4728125 77.05859375 66.1328125 C76.06859375 65.4728125 75.07859375 64.8128125 74.05859375 64.1328125 C74.05859375 63.1428125 74.05859375 62.1528125 74.05859375 61.1328125 C73.06859375 61.1328125 72.07859375 61.1328125 71.05859375 61.1328125 C71.05859375 60.1428125 71.05859375 59.1528125 71.05859375 58.1328125 C69.85203125 57.9471875 69.85203125 57.9471875 68.62109375 57.7578125 C67.77546875 57.5515625 66.92984375 57.3453125 66.05859375 57.1328125 C65.72859375 56.4728125 65.39859375 55.8128125 65.05859375 55.1328125 C63.0339612 54.48067958 63.0339612 54.48067958 61.05859375 54.1328125 C61.05859375 53.4728125 61.05859375 52.8128125 61.05859375 52.1328125 C59.07859375 51.8028125 57.09859375 51.4728125 55.05859375 51.1328125 C55.05859375 50.4728125 55.05859375 49.8128125 55.05859375 49.1328125 C52.08859375 48.8028125 49.11859375 48.4728125 46.05859375 48.1328125 C46.05859375 47.4728125 46.05859375 46.8128125 46.05859375 46.1328125 C43.08859375 45.8028125 40.11859375 45.4728125 37.05859375 45.1328125 C37.05859375 44.4728125 37.05859375 43.8128125 37.05859375 43.1328125 C33.42859375 42.8028125 29.79859375 42.4728125 26.05859375 42.1328125 C26.38859375 41.1428125 26.71859375 40.1528125 27.05859375 39.1328125 C22.10859375 39.1328125 17.15859375 39.1328125 12.05859375 39.1328125 C12.05859375 38.1428125 12.05859375 37.1528125 12.05859375 36.1328125 C11.39738525 36.10775635 10.73617676 36.0827002 10.05493164 36.05688477 C7.0767707 35.94128148 4.09895455 35.81839496 1.12109375 35.6953125 C0.08017578 35.65599609 -0.96074219 35.61667969 -2.03320312 35.57617188 C-3.02255859 35.53427734 -4.01191406 35.49238281 -5.03125 35.44921875 C-5.94769287 35.41256104 -6.86413574 35.37590332 -7.80834961 35.33813477 C-9.94140625 35.1328125 -9.94140625 35.1328125 -10.94140625 34.1328125 C-21.22330921 32.74226241 -31.68993736 32.98553141 -42.04296875 33 C-43.77249159 32.99932393 -45.50201434 32.99835141 -47.23153687 32.99710083 C-50.84040235 32.99563572 -54.44924291 32.99773835 -58.05810547 33.00244141 C-62.62620872 33.00811204 -67.19425285 33.00486899 -71.7623539 32.99886894 C-75.33169986 32.99520886 -78.90103245 32.99642697 -82.47037888 32.99899673 C-84.15165591 32.9996524 -85.83293426 32.99888667 -87.51420975 32.99651718 C-96.54164326 32.98658928 -105.54246022 33.13436066 -114.56005859 33.57861328 C-115.38500635 33.61733488 -116.20995411 33.65605648 -117.05990028 33.69595146 C-120.81115455 33.56465967 -120.81115455 33.56465967 -123.94140625 35.1328125 C-126.6056731 35.29284738 -129.24701053 35.39224139 -131.9140625 35.44921875 C-133.1105265 35.4803904 -133.1105265 35.4803904 -134.3311615 35.51219177 C-136.88865236 35.57777408 -139.44624905 35.63661217 -142.00390625 35.6953125 C-143.73373507 35.73848949 -145.46355304 35.78210351 -147.19335938 35.82617188 C-151.44259885 35.93346422 -155.69194515 36.03470676 -159.94140625 36.1328125 C-159.94140625 36.7928125 -159.94140625 37.4528125 -159.94140625 38.1328125 C-159.28140625 38.4628125 -158.62140625 38.7928125 -157.94140625 39.1328125 C-167.84140625 39.4628125 -177.74140625 39.7928125 -187.94140625 40.1328125 C-187.61140625 40.7928125 -187.28140625 41.4528125 -186.94140625 42.1328125 C-198.82140625 42.6278125 -198.82140625 42.6278125 -210.94140625 43.1328125 C-210.94140625 43.7928125 -210.94140625 44.4528125 -210.94140625 45.1328125 C-218.20140625 45.4628125 -225.46140625 45.7928125 -232.94140625 46.1328125 C-233.43640625 47.1228125 -233.43640625 47.1228125 -233.94140625 48.1328125 C-235.21757812 48.18179688 -236.49375 48.23078125 -237.80859375 48.28125 C-239.47788697 48.35627441 -241.14715671 48.43182238 -242.81640625 48.5078125 C-244.07904297 48.55421875 -244.07904297 48.55421875 -245.3671875 48.6015625 C-246.57568359 48.65957031 -246.57568359 48.65957031 -247.80859375 48.71875 C-248.55222168 48.7501709 -249.29584961 48.7815918 -250.06201172 48.81396484 C-252.18151599 48.98700801 -252.18151599 48.98700801 -253.94140625 51.1328125 C-256.09619141 51.45166016 -256.09619141 51.45166016 -258.73046875 51.546875 C-260.14199219 51.60488281 -260.14199219 51.60488281 -261.58203125 51.6640625 C-262.566875 51.695 -263.55171875 51.7259375 -264.56640625 51.7578125 C-266.05527344 51.81582031 -266.05527344 51.81582031 -267.57421875 51.875 C-270.0297601 51.9694439 -272.48529035 52.05501125 -274.94140625 52.1328125 C-274.94140625 52.7928125 -274.94140625 53.4528125 -274.94140625 54.1328125 C-284.84140625 54.6278125 -284.84140625 54.6278125 -294.94140625 55.1328125 C-294.94140625 55.7928125 -294.94140625 56.4528125 -294.94140625 57.1328125 C-305.33640625 57.6278125 -305.33640625 57.6278125 -315.94140625 58.1328125 C-316.43640625 59.1228125 -316.43640625 59.1228125 -316.94140625 60.1328125 C-320.16195056 60.46389649 -323.33720882 60.59836964 -326.5703125 60.69921875 C-328.36474024 60.7787406 -330.15463436 60.94912567 -331.94140625 61.1328125 C-332.27140625 61.7928125 -332.60140625 62.4528125 -332.94140625 63.1328125 C-338.22140625 63.1328125 -343.50140625 63.1328125 -348.94140625 63.1328125 C-348.94140625 63.7928125 -348.94140625 64.4528125 -348.94140625 65.1328125 C-350.92140625 65.1328125 -352.90140625 65.1328125 -354.94140625 65.1328125 C-354.94140625 63.1528125 -354.94140625 61.1728125 -354.94140625 59.1328125 C-352.46640625 58.6378125 -352.46640625 58.6378125 -349.94140625 58.1328125 C-349.61140625 57.1428125 -349.28140625 56.1528125 -348.94140625 55.1328125 C-348.34078369 55.0827002 -347.74016113 55.03258789 -347.12133789 54.98095703 C-344.41459126 54.74964703 -341.70934503 54.50392845 -339.00390625 54.2578125 C-338.05837891 54.17917969 -337.11285156 54.10054687 -336.13867188 54.01953125 C-335.23955078 53.93574219 -334.34042969 53.85195313 -333.4140625 53.765625 C-332.58140869 53.69230957 -331.74875488 53.61899414 -330.89086914 53.54345703 C-329.92588501 53.34018799 -329.92588501 53.34018799 -328.94140625 53.1328125 C-328.61140625 52.4728125 -328.28140625 51.8128125 -327.94140625 51.1328125 C-324.72086194 50.80172851 -321.54560368 50.66725536 -318.3125 50.56640625 C-316.51807226 50.4868844 -314.72817814 50.31649933 -312.94140625 50.1328125 C-312.44640625 49.1428125 -312.44640625 49.1428125 -311.94140625 48.1328125 C-309.39199252 47.82039879 -306.93779112 47.61977829 -304.37890625 47.5078125 C-303.3125293 47.44980469 -303.3125293 47.44980469 -302.22460938 47.390625 C-300.463982 47.29609467 -298.70272897 47.21335433 -296.94140625 47.1328125 C-296.94140625 46.4728125 -296.94140625 45.8128125 -296.94140625 45.1328125 C-295.87019531 45.08382812 -294.79898438 45.03484375 -293.6953125 44.984375 C-292.29814986 44.90935956 -290.90101575 44.8338112 -289.50390625 44.7578125 C-288.79685547 44.726875 -288.08980469 44.6959375 -287.36132812 44.6640625 C-285.54901437 44.56000621 -283.74322637 44.35361358 -281.94140625 44.1328125 C-281.44640625 43.1428125 -281.44640625 43.1428125 -280.94140625 42.1328125 C-278.10546875 41.7890625 -278.10546875 41.7890625 -274.56640625 41.6328125 C-269.4247528 41.46824116 -269.4247528 41.46824116 -264.94140625 39.1328125 C-262.4899385 38.88484795 -260.02848293 38.72955422 -257.56640625 38.6328125 C-252.78335947 38.44413215 -249.33131126 37.92653713 -244.94140625 36.1328125 C-242.18562686 35.61967723 -239.41459456 35.31152472 -236.62890625 35.0078125 C-235.88833984 34.92144531 -235.14777344 34.83507813 -234.38476562 34.74609375 C-232.5710219 34.53546545 -230.75630082 34.33328264 -228.94140625 34.1328125 C-228.94140625 33.4728125 -228.94140625 32.8128125 -228.94140625 32.1328125 C-222.67140625 31.8028125 -216.40140625 31.4728125 -209.94140625 31.1328125 C-210.93140625 30.4728125 -211.92140625 29.8128125 -212.94140625 29.1328125 C-203.04140625 28.6378125 -203.04140625 28.6378125 -192.94140625 28.1328125 C-193.27140625 27.4728125 -193.60140625 26.8128125 -193.94140625 26.1328125 C-192.79800781 26.08382813 -191.65460938 26.03484375 -190.4765625 25.984375 C-188.98565152 25.90936061 -187.49476733 25.83381222 -186.00390625 25.7578125 C-185.24916016 25.726875 -184.49441406 25.6959375 -183.71679688 25.6640625 C-181.7863323 25.560181 -179.86198544 25.35385636 -177.94140625 25.1328125 C-177.61140625 24.4728125 -177.28140625 23.8128125 -176.94140625 23.1328125 C-174.43804145 22.87272265 -172.01378794 22.71160842 -169.50390625 22.6328125 C-164.23791475 22.74288308 -164.23791475 22.74288308 -159.94140625 20.1328125 C-156.30525372 19.80762813 -152.70915415 19.66820119 -149.0625 19.56640625 C-144.52863921 19.58435069 -144.52863921 19.58435069 -140.94140625 17.1328125 C-139.06201172 16.81396484 -139.06201172 16.81396484 -136.80859375 16.71875 C-136.00292969 16.68007813 -135.19726562 16.64140625 -134.3671875 16.6015625 C-133.52542969 16.570625 -132.68367187 16.5396875 -131.81640625 16.5078125 C-130.96691406 16.46914063 -130.11742187 16.43046875 -129.2421875 16.390625 C-127.14228941 16.29624756 -125.04187734 16.21343664 -122.94140625 16.1328125 C-122.94140625 15.4728125 -122.94140625 14.8128125 -122.94140625 14.1328125 C-114.52640625 13.6378125 -114.52640625 13.6378125 -105.94140625 13.1328125 C-105.94140625 12.4728125 -105.94140625 11.8128125 -105.94140625 11.1328125 C-97.03140625 10.1428125 -97.03140625 10.1428125 -87.94140625 9.1328125 C-87.94140625 8.4728125 -87.94140625 7.8128125 -87.94140625 7.1328125 C-77.54640625 6.6378125 -77.54640625 6.6378125 -66.94140625 6.1328125 C-67.27140625 5.4728125 -67.60140625 4.8128125 -67.94140625 4.1328125 C-59.36140625 3.8028125 -50.78140625 3.4728125 -41.94140625 3.1328125 C-42.27140625 2.4728125 -42.60140625 1.8128125 -42.94140625 1.1328125 C-28.65066222 -0.19796638 -14.33884821 -0.01265914 0 0 Z " fill="#63A710" transform="translate(423.94140625,-0.1328125)"/>
<path d="M0 0 C1.98 0 3.96 0 6 0 C6.495 0.99 6.495 0.99 7 2 C9.32156597 2.40729228 11.6568787 2.74438677 14 3 C14 3.66 14 4.32 14 5 C14.99 5.33 15.98 5.66 17 6 C18.1875 8.0625 18.1875 8.0625 19 10 C19.33 7.69 19.66 5.38 20 3 C24.3164922 2.23826608 27.74433453 1.83936396 32 3 C32 3.99 32 4.98 32 6 C32.99 6 33.98 6 35 6 C35.495 8.97 35.495 8.97 36 12 C36.66 12 37.32 12 38 12 C38.33 9.03 38.66 6.06 39 3 C42.52994613 1.82335129 45.29455413 1.80149397 49 2 C49.99 2.66 50.98 3.32 52 4 C52.1875 6.625 52.1875 6.625 52 9 C52.66 9 53.32 9 54 9 C54 8.01 54 7.02 54 6 C54.99 5.34 55.98 4.68 57 4 C57 3.67 57 3.34 57 3 C58.134375 2.87625 59.26875 2.7525 60.4375 2.625 C61.613125 2.41875 62.78875 2.2125 64 2 C64.33 1.34 64.66 0.68 65 0 C66.65 0 68.3 0 70 0 C70.495 0.99 70.495 0.99 71 2 C72.89533342 2.46523063 72.89533342 2.46523063 75.0625 2.625 C76.361875 2.74875 77.66125 2.8725 79 3 C79 3.66 79 4.32 79 5 C79.99 5.33 80.98 5.66 82 6 C82.495 8.97 82.495 8.97 83 12 C83.66 12 84.32 12 85 12 C85.33 10.02 85.66 8.04 86 6 C86.99 5.67 87.98 5.34 89 5 C89.33 4.34 89.66 3.68 90 3 C93.5 2.5 93.5 2.5 97 2 C97.33 1.34 97.66 0.68 98 0 C99.65 0 101.3 0 103 0 C103.33 0.66 103.66 1.32 104 2 C106.32156597 2.40729228 108.6568787 2.74438677 111 3 C111 3.66 111 4.32 111 5 C111.99 5.33 112.98 5.66 114 6 C114 6.99 114 7.98 114 9 C114.99 9 115.98 9 117 9 C117.33 12.96 117.66 16.92 118 21 C119.44672103 18.10655794 119.38056583 15.19460336 119.62109375 11.99609375 C119.74613281 11.33738281 119.87117187 10.67867187 120 10 C120.66 9.67 121.32 9.34 122 9 C122.65772428 5.97065509 122.65772428 5.97065509 123 3 C124.74906659 2.80398392 126.49931846 2.61852597 128.25 2.4375 C129.22453125 2.33308594 130.1990625 2.22867188 131.203125 2.12109375 C133.7631352 2.01025532 135.58148159 2.22261908 138 3 C138.33 4.98 138.66 6.96 139 9 C139.99 9 140.98 9 142 9 C142.04898438 9.63808594 142.09796875 10.27617187 142.1484375 10.93359375 C142.26058594 12.17302734 142.26058594 12.17302734 142.375 13.4375 C142.47941406 14.67306641 142.47941406 14.67306641 142.5859375 15.93359375 C142.72257813 16.61550781 142.85921875 17.29742187 143 18 C143.66 18.33 144.32 18.66 145 19 C145.625 22.0625 145.625 22.0625 146 25 C145.09114041 20.22848717 144.84984853 15.54513114 144.75 10.6875 C144.71132813 8.86798828 144.71132813 8.86798828 144.671875 7.01171875 C144.83429688 5.52091797 144.83429688 5.52091797 145 4 C148.14611253 1.90259164 148.91188078 1.74671781 152.5 1.8125 C153.2734375 1.81894531 154.046875 1.82539063 154.84375 1.83203125 C157 2 157 2 160 3 C159.979375 3.804375 159.95875 4.60875 159.9375 5.4375 C159.70366379 7.93354885 159.70366379 7.93354885 161 9 C161 8.01 161 7.02 161 6 C161.66 5.34 162.32 4.68 163 4 C163 3.67 163 3.34 163 3 C165.31 2.34 167.62 1.68 170 1 C170 0.67 170 0.34 170 0 C176.75 -0.125 176.75 -0.125 179 1 C179 2.32 179 3.64 179 5 C178.34 5 177.68 5 177 5 C176.9175 6.11375 176.835 7.2275 176.75 8.375 C176.5025 9.57125 176.255 10.7675 176 12 C174 13.3125 174 13.3125 172 14 C171.67 14.66 171.34 15.32 171 16 C170.34 16 169.68 16 169 16 C169 16.99 169 17.98 169 19 C168.34 19 167.68 19 167 19 C167.495 19.433125 167.99 19.86625 168.5 20.3125 C170 22 170 22 170 25 C170.99 25 171.98 25 173 25 C173 25.99 173 26.98 173 28 C173.99 28 174.98 28 176 28 C176.33 28.99 176.66 29.98 177 31 C177.66 31.33 178.32 31.66 179 32 C179 34.31 179 36.62 179 39 C174.05 39 169.1 39 164 39 C164 37.35 164 35.7 164 34 C163.34 34 162.68 34 162 34 C161.67 33.34 161.34 32.68 161 32 C160.67 34.31 160.34 36.62 160 39 C152.08 39 144.16 39 136 39 C135.67 36.69 135.34 34.38 135 32 C133.02 32 131.04 32 129 32 C128.01 34.31 127.02 36.62 126 39 C121.71 39 117.42 39 113 39 C113 37.35 113 35.7 113 34 C110.525 34.495 110.525 34.495 108 35 C108 36.32 108 37.64 108 39 C102.72 39 97.44 39 92 39 C91.67 37.68 91.34 36.36 91 35 C90.01 34.67 89.02 34.34 88 34 C88 33.34 88 32.68 88 32 C86.515 31.505 86.515 31.505 85 31 C85 30.01 85 29.02 85 28 C84.34 28 83.68 28 83 28 C82.67 29.32 82.34 30.64 82 32 C81.34 32 80.68 32 80 32 C80 32.66 80 33.32 80 34 C78.515 34.495 78.515 34.495 77 35 C76.67 36.32 76.34 37.64 76 39 C70.72 39 65.44 39 60 39 C60 37.68 60 36.36 60 35 C59.21625 34.938125 58.4325 34.87625 57.625 34.8125 C56.75875 34.544375 55.8925 34.27625 55 34 C53.6875 31.4375 53.6875 31.4375 53 29 C52.34 29 51.68 29 51 29 C51 32.3 51 35.6 51 39 C47.04 39 43.08 39 39 39 C38.505 37.02 38.505 37.02 38 35 C37.34 34.67 36.68 34.34 36 34 C35.375 30.9375 35.375 30.9375 35 28 C34.34 28 33.68 28 33 28 C32.67 31.63 32.34 35.26 32 39 C28.04 39 24.08 39 20 39 C20 35.37 20 31.74 20 28 C19.34 28 18.68 28 18 28 C17.855625 28.61875 17.71125 29.2375 17.5625 29.875 C17 32 17 32 16 34 C13.4375 34.625 13.4375 34.625 11 35 C11 36.32 11 37.64 11 39 C5.72 39 0.44 39 -5 39 C-5 37.68 -5 36.36 -5 35 C-5.721875 35 -6.44375 35 -7.1875 35 C-10.94215605 33.66501118 -12.10229502 31.85617039 -14.05859375 28.46484375 C-16.07995029 23.1724123 -15.77271751 17.31815252 -14 12 C-15.98 12.33 -17.96 12.66 -20 13 C-20 21.58 -20 30.16 -20 39 C-24.29 39 -28.58 39 -33 39 C-33.33 30.42 -33.66 21.84 -34 13 C-35.98 13 -37.96 13 -40 13 C-40 9.7 -40 6.4 -40 3 C-35.26303914 1.42101305 -30.46056587 1.81552105 -25.5 1.8125 C-23.91251953 1.79413086 -23.91251953 1.79413086 -22.29296875 1.77539062 C-21.27847656 1.77345703 -20.26398438 1.77152344 -19.21875 1.76953125 C-17.8255957 1.76336792 -17.8255957 1.76336792 -16.40429688 1.75708008 C-14 2 -14 2 -11 4 C-11 4.66 -11 5.32 -11 6 C-10.01 5.34 -9.02 4.68 -8 4 C-8 3.67 -8 3.34 -8 3 C-6.865625 2.87625 -5.73125 2.7525 -4.5625 2.625 C-3.386875 2.41875 -2.21125 2.2125 -1 2 C-0.67 1.34 -0.34 0.68 0 0 Z M-12 7 C-11.67 7.66 -11.34 8.32 -11 9 C-10.67 8.34 -10.34 7.68 -10 7 C-10.66 7 -11.32 7 -12 7 Z M66 14 C65.67 14.66 65.34 15.32 65 16 C66.65 16 68.3 16 70 16 C70.33 15.34 70.66 14.68 71 14 C69.35 14 67.7 14 66 14 Z M99 14 C98.67 14.66 98.34 15.32 98 16 C99.98 16 101.96 16 104 16 C103.67 15.34 103.34 14.68 103 14 C101.68 14 100.36 14 99 14 Z M-2 16 C-2.020625 17.299375 -2.04125 18.59875 -2.0625 19.9375 C-2.07410156 20.66839844 -2.08570313 21.39929688 -2.09765625 22.15234375 C-2.20561184 24.01732141 -2.20561184 24.01732141 -1 25 C1.67058851 25.14115161 4.32432238 25.04247107 7 25 C7.33 22.03 7.66 19.06 8 16 C4.33694766 15.25073929 1.57644848 14.7619986 -2 16 Z M63 16 C63 17.98 63 19.96 63 22 C63.33 22 63.66 22 64 22 C64.33 20.02 64.66 18.04 65 16 C64.34 16 63.68 16 63 16 Z M96 16 C94.84188612 18.94729537 94.84188612 18.94729537 95 22 C95.66 22 96.32 22 97 22 C97.33 20.02 97.66 18.04 98 16 C97.34 16 96.68 16 96 16 Z M63 23 C63.33 23.66 63.66 24.32 64 25 C64.66 24.67 65.32 24.34 66 24 C65.01 23.67 64.02 23.34 63 23 Z M113 31 C114 34 114 34 114 34 Z " fill="#63A710" transform="translate(113,245)"/>
<path d="M0 0 C1.98 0 3.96 0 6 0 C6.495 0.99 6.495 0.99 7 2 C7.928125 2.12375 8.85625 2.2475 9.8125 2.375 C13 3 13 3 15.375 4.5 C17.78898615 8.21382485 17.33149263 11.69059582 17 16 C15.35 16.33 13.7 16.66 12 17 C12.61875 17.28875 13.2375 17.5775 13.875 17.875 C16 19 16 19 18 21 C19.44672103 18.10655794 19.38056583 15.19460336 19.62109375 11.99609375 C19.74613281 11.33738281 19.87117188 10.67867187 20 10 C20.66 9.67 21.32 9.34 22 9 C22.72693904 7.02111039 23.39816251 5.02045442 24 3 C35.64155005 1.53067815 35.64155005 1.53067815 39 3 C40.3125 5.5625 40.3125 5.5625 41 8 C41.33 8 41.66 8 42 8 C42.495 13.445 42.495 13.445 43 19 C43.66 19 44.32 19 45 19 C45.495 21.97 45.495 21.97 46 25 C46 22.36 46 19.72 46 17 C45.67 17 45.34 17 45 17 C45 12.71 45 8.42 45 4 C53.85923327 1.04692224 61.83081509 1.90750137 71 3 C71 3.66 71 4.32 71 5 C72.65 5.33 74.3 5.66 76 6 C76.433125 7.423125 76.433125 7.423125 76.875 8.875 C77.76825109 12.05211578 77.76825109 12.05211578 80 14 C80.33 15.32 80.66 16.64 81 18 C81.66 14.37 82.32 10.74 83 7 C83.99 6.67 84.98 6.34 86 6 C86 5.01 86 4.02 86 3 C91.23471686 2.24387423 95.77254141 1.7936634 101 3 C101.33 5.97 101.66 8.94 102 12 C102.66 12 103.32 12 104 12 C104.33 14.97 104.66 17.94 105 21 C105.99 21 106.98 21 108 21 C108 23.31 108 25.62 108 28 C108.99 28 109.98 28 111 28 C111 31.63 111 35.26 111 39 C106.71 39 102.42 39 98 39 C97.01 36.69 96.02 34.38 95 32 C93.35 32 91.7 32 90 32 C89.67 34.31 89.34 36.62 89 39 C84.71 39 80.42 39 76 39 C76 36.36 76 33.72 76 31 C75.566875 31.474375 75.13375 31.94875 74.6875 32.4375 C73 34 73 34 70 35 C70 36.32 70 37.64 70 39 C58.78 39 47.56 39 36 39 C36 36.69 36 34.38 36 32 C33.69 32 31.38 32 29 32 C28.34 34.31 27.68 36.62 27 39 C22.71 39 18.42 39 14 39 C14 37.35 14 35.7 14 34 C13.01 34.495 13.01 34.495 12 35 C11.67 36.32 11.34 37.64 11 39 C5.72 39 0.44 39 -5 39 C-5 37.35 -5 35.7 -5 34 C-5.99 34 -6.98 34 -8 34 C-8.33 33.34 -8.66 32.68 -9 32 C-10.32 32 -11.64 32 -13 32 C-13 32.66 -13 33.32 -13 34 C-14.98 34.495 -14.98 34.495 -17 35 C-17 36.32 -17 37.64 -17 39 C-22.28 39 -27.56 39 -33 39 C-33.495 37.02 -33.495 37.02 -34 35 C-36.47661498 32.75149517 -36.47661498 32.75149517 -39 31 C-39 33.64 -39 36.28 -39 39 C-43.29 39 -47.58 39 -52 39 C-53.20535714 28.82142857 -53.20535714 28.82142857 -52 25 C-53.98 25 -55.96 25 -58 25 C-58 29.62 -58 34.24 -58 39 C-62.29 39 -66.58 39 -71 39 C-71 27.12 -71 15.24 -71 3 C-67.85658007 1.42829004 -64.44228549 1.76824217 -61 2 C-60.01 2.33 -59.02 2.66 -58 3 C-58 5.97 -58 8.94 -58 12 C-56.02 12 -54.04 12 -52 12 C-52.33 11.34 -52.66 10.68 -53 10 C-53.1875 7 -53.1875 7 -53 4 C-51 2 -51 2 -48.78515625 1.75708008 C-47.88667969 1.76118896 -46.98820312 1.76529785 -46.0625 1.76953125 C-44.59683594 1.77243164 -44.59683594 1.77243164 -43.1015625 1.77539062 C-42.07804687 1.78763672 -41.05453125 1.79988281 -40 1.8125 C-38.97648437 1.81314453 -37.95296875 1.81378906 -36.8984375 1.81445312 C-29.28064503 1.85967749 -29.28064503 1.85967749 -27 3 C-27 10.26 -27 17.52 -27 25 C-25.68 25 -24.36 25 -23 25 C-23.495 23.515 -23.495 23.515 -24 22 C-24.08021999 20.59175107 -24.10765977 19.18002769 -24.09765625 17.76953125 C-24.09443359 16.96708984 -24.09121094 16.16464844 -24.08789062 15.33789062 C-24.07532227 14.08782227 -24.07532227 14.08782227 -24.0625 12.8125 C-24.05798828 11.96751953 -24.05347656 11.12253906 -24.04882812 10.25195312 C-24.03705403 8.16793845 -24.0191189 6.08396023 -24 4 C-20.99060247 2.26169503 -18.84057335 1.748752 -15.375 1.8125 C-14.59898437 1.81894531 -13.82296875 1.82539063 -13.0234375 1.83203125 C-11 2 -11 2 -9 3 C-8.67 2.34 -8.34 1.68 -8 1 C-8.33 2.65 -8.66 4.3 -9 6 C-8.34 6 -7.68 6 -7 6 C-7 5.01 -7 4.02 -7 3 C-4.69 2.34 -2.38 1.68 0 1 C0 0.67 0 0.34 0 0 Z M2 12 C2.33 12.66 2.66 13.32 3 14 C3.66 13.67 4.32 13.34 5 13 C4.01 12.67 3.02 12.34 2 12 Z M61 15 C59.85647084 17.28705831 59.89665561 18.59264762 59.9375 21.125 C59.958125 22.40375 59.97875 23.6825 60 25 C61.65 24.67 63.3 24.34 65 24 C65 23.34 65 22.68 65 22 C65.66 22 66.32 22 67 22 C66.89386164 19.54775306 66.89386164 19.54775306 66 17 C63.52363988 15.62533375 63.52363988 15.62533375 61 15 Z M79 19 C80 22 80 22 80 22 Z M77 26 C78 28 78 28 78 28 Z M76 28 C77 30 77 30 77 30 Z " fill="#63A710" transform="translate(369,245)"/>
<path d="M0 0 C1.65 0 3.3 0 5 0 C5.495 0.99 5.495 0.99 6 2 C7.093125 2.12375 8.18625 2.2475 9.3125 2.375 C13 3 13 3 15.4375 4.5 C17.76490154 8.22384246 17.32910888 11.72158453 17 16 C14.03 16.495 14.03 16.495 11 17 C12.98 17.66 14.96 18.32 17 19 C17.13496251 21.10241603 17.23197307 23.2072961 17.3125 25.3125 C17.37050781 26.48425781 17.42851563 27.65601563 17.48828125 28.86328125 C17.32714844 29.89839844 17.16601562 30.93351562 17 32 C14.54296875 33.66796875 14.54296875 33.66796875 12 35 C11.67 36.32 11.34 37.64 11 39 C5.72 39 0.44 39 -5 39 C-5.495 37.02 -5.495 37.02 -6 35 C-6.99 34.67 -7.98 34.34 -9 34 C-9 33.01 -9 32.02 -9 31 C-9 32.32 -9 33.64 -9 35 C-8.67 36.32 -8.34 37.64 -8 39 C-12.95 39 -17.9 39 -23 39 C-23.33 36.36 -23.66 33.72 -24 31 C-24.66 31 -25.32 31 -26 31 C-26 33.64 -26 36.28 -26 39 C-30.29 39 -34.58 39 -39 39 C-39 27.12 -39 15.24 -39 3 C-30.59134203 1.31826841 -22.45926758 1.89058786 -14 3 C-14 3.99 -14 4.98 -14 6 C-11.02934491 5.65772428 -11.02934491 5.65772428 -8 5 C-7.67 4.34 -7.34 3.68 -7 3 C-5 2.66666667 -3 2.33333333 -1 2 C-0.67 1.34 -0.34 0.68 0 0 Z M2 12 C2 12.66 2 13.32 2 14 C2.66 13.67 3.32 13.34 4 13 C3.34 12.67 2.68 12.34 2 12 Z M-26 13 C-26 13.99 -26 14.98 -26 16 C-24.68 15.67 -23.36 15.34 -22 15 C-22.33 14.34 -22.66 13.68 -23 13 C-23.99 13 -24.98 13 -26 13 Z M-11 19 C-11 19.99 -11 20.98 -11 22 C-10.01 22 -9.02 22 -8 22 C-8 21.01 -8 20.02 -8 19 C-8.99 19 -9.98 19 -11 19 Z M-13 22 C-14.29633621 23.06645115 -14.29633621 23.06645115 -14.0625 25.5625 C-14.041875 26.366875 -14.02125 27.17125 -14 28 C-13.01 28 -12.02 28 -11 28 C-11 26.02 -11 24.04 -11 22 C-11.66 22 -12.32 22 -13 22 Z " fill="#63A710" transform="translate(50,245)"/>
<path d="M0 0 C0.33 0 0.66 0 1 0 C1 1.98 1 3.96 1 6 C0.67 6 0.34 6 0 6 C0 4.02 0 2.04 0 0 Z " fill="#63A710" transform="translate(314,275)"/>
<path d="M0 0 C0.33 0 0.66 0 1 0 C1 1.65 1 3.3 1 5 C0.67 5 0.34 5 0 5 C0 3.35 0 1.7 0 0 Z " fill="#63A710" transform="translate(314,250)"/>
<path d="M0 0 C1 4 1 4 1 4 Z " fill="#63A710" transform="translate(94,274)"/>
<path d="M0 0 C2 1 2 1 2 1 Z " fill="#63A710" transform="translate(263,245)"/>
</svg>
